<?xml version="1.0" encoding="UTF-8" standalone="no"?>
<!DOCTYPE svg PUBLIC "-//W3C//DTD SVG 1.1//EN"
 "http://www.w3.org/Graphics/SVG/1.1/DTD/svg11.dtd">
<!-- Generated by graphviz version 2.38.0 (20140413.2041)
 -->
<!-- Title: dependency_graph Pages: 1 -->
<svg width="434pt" height="116pt"
 viewBox="0.00 0.00 434.29 116.00" xmlns="http://www.w3.org/2000/svg" xmlns:xlink="http://www.w3.org/1999/xlink">
<g id="graph0" class="graph" transform="scale(1 1) rotate(0) translate(4 112)">
<title>dependency_graph</title>
<polygon fill="white" stroke="none" points="-4,4 -4,-112 430.288,-112 430.288,4 -4,4"/>
<!-- a (placeholder) -->
<g id="node1" class="node"><title>a (placeholder)</title>
<ellipse fill="none" stroke="black" cx="210.344" cy="-90" rx="63.8893" ry="18"/>
<text text-anchor="middle" x="210.344" y="-86.3" font-family="Times,serif" font-size="14.00">a (placeholder)</text>
</g>
<!-- c = (a + b) -->
<g id="node2" class="node"><title>c = (a + b)</title>
<ellipse fill="none" stroke="black" cx="79.3443" cy="-18" rx="49.2915" ry="18"/>
<text text-anchor="middle" x="79.3443" y="-14.3" font-family="Times,serif" font-size="14.00">c = (a + b)</text>
</g>
<!-- a (placeholder)&#45;&gt;c = (a + b) -->
<g id="edge1" class="edge"><title>a (placeholder)&#45;&gt;c = (a + b)</title>
<path fill="none" stroke="black" d="M181.919,-73.811C162.254,-63.303 135.941,-49.2426 114.89,-37.9937"/>
<polygon fill="black" stroke="black" points="116.397,-34.8311 105.928,-33.2051 113.098,-41.0049 116.397,-34.8311"/>
</g>
<!-- d = (2 * a) -->
<g id="node3" class="node"><title>d = (2 * a)</title>
<ellipse fill="none" stroke="black" cx="210.344" cy="-18" rx="48.9926" ry="18"/>
<text text-anchor="middle" x="210.344" y="-14.3" font-family="Times,serif" font-size="14.00">d = (2 * a)</text>
</g>
<!-- a (placeholder)&#45;&gt;d = (2 * a) -->
<g id="edge2" class="edge"><title>a (placeholder)&#45;&gt;d = (2 * a)</title>
<path fill="none" stroke="black" d="M210.344,-71.6966C210.344,-63.9827 210.344,-54.7125 210.344,-46.1124"/>
<polygon fill="black" stroke="black" points="213.844,-46.1043 210.344,-36.1043 206.844,-46.1044 213.844,-46.1043"/>
</g>
<!-- b (placeholder) -->
<g id="node4" class="node"><title>b (placeholder)</title>
<ellipse fill="none" stroke="black" cx="64.3443" cy="-90" rx="64.189" ry="18"/>
<text text-anchor="middle" x="64.3443" y="-86.3" font-family="Times,serif" font-size="14.00">b (placeholder)</text>
</g>
<!-- b (placeholder)&#45;&gt;c = (a + b) -->
<g id="edge3" class="edge"><title>b (placeholder)&#45;&gt;c = (a + b)</title>
<path fill="none" stroke="black" d="M68.0522,-71.6966C69.7051,-63.9827 71.6916,-54.7125 73.5345,-46.1124"/>
<polygon fill="black" stroke="black" points="77.006,-46.6157 75.6791,-36.1043 70.1614,-45.149 77.006,-46.6157"/>
</g>
<!-- const (constant) -->
<g id="node5" class="node"><title>const (constant)</title>
<ellipse fill="none" stroke="black" cx="359.344" cy="-90" rx="66.8882" ry="18"/>
<text text-anchor="middle" x="359.344" y="-86.3" font-family="Times,serif" font-size="14.00">const (constant)</text>
</g>
</g>
</svg>
